<?xml version="1.0" encoding="UTF-8"?>
<svg xmlns="http://www.w3.org/2000/svg" xmlns:xlink="http://www.w3.org/1999/xlink" width="75px" height="50px" viewBox="0 0 75 50" version="1.1">
<g id="surface1">
<path style=" stroke:none;fill-rule:nonzero;fill:rgb(0%,0%,0%);fill-opacity:1;" d="M 29.140625 0.257812 C 19.386719 1.085938 9.703125 3.976562 4.589844 7.589844 C -1.167969 11.691406 -1.453125 16.289062 3.816406 20.289062 C 14.761719 28.578125 43.703125 30.925781 61.4375 24.914062 C 70.265625 21.941406 74.808594 18.328125 74.761719 14.300781 C 74.707031 7.769531 62.03125 1.652344 45.664062 0.257812 C 42.074219 -0.0507812 32.882812 -0.0507812 29.140625 0.257812 Z M 47.1875 1.265625 C 50.980469 1.703125 50.957031 1.726562 44.835938 3.332031 C 42.589844 3.921875 40.5 4.570312 40.1875 4.777344 C 39.386719 5.265625 39.441406 6.121094 40.242188 6.484375 C 40.605469 6.632812 40.890625 6.894531 40.890625 7.046875 C 40.890625 7.203125 40.058594 7.953125 39.078125 8.726562 C 37.015625 10.300781 36.597656 10.84375 36.988281 11.566406 C 37.300781 12.109375 38.074219 12.292969 41.039062 12.519531 L 43.109375 12.679688 L 45.921875 10.457031 L 48.707031 8.238281 L 50.230469 8.285156 C 52.371094 8.386719 52.554688 8.105469 52.453125 4.671875 C 52.402344 3.046875 52.476562 2.042969 52.632812 2.042969 C 52.789062 2.042969 54.101562 2.324219 55.605469 2.660156 C 62.804688 4.308594 68.203125 6.710938 71.324219 9.628906 C 75.09375 13.191406 74.679688 16.519531 70.058594 19.925781 C 68.484375 21.066406 63.941406 23.207031 61.074219 24.136719 C 57.824219 25.195312 52.246094 26.382812 48.246094 26.871094 C 45.046875 27.261719 30.480469 27.339844 28.363281 27.007812 C 26.742188 26.722656 27.152344 26.484375 30.171875 25.917969 C 33.144531 25.378906 34.023438 25.117188 34.535156 24.527344 C 34.949219 24.082031 34.921875 24.011719 34.046875 23.308594 L 33.089844 22.566406 L 35.515625 20.472656 C 39.027344 17.476562 38.953125 16.828125 35.050781 16.085938 C 31.746094 15.460938 31.800781 15.4375 28.601562 18.125 L 25.707031 20.527344 L 24.308594 20.421875 C 22.167969 20.265625 21.9375 20.628906 22.121094 23.648438 C 22.269531 26.460938 22.507812 26.335938 18.96875 25.53125 C 15.511719 24.753906 10.65625 23.101562 7.945312 21.761719 C 3.25 19.414062 0.5625 16.394531 0.972656 13.886719 C 1.234375 12.261719 2.007812 10.996094 3.636719 9.550781 C 5.335938 8.03125 6.0625 7.796875 4.671875 9.21875 C 3.558594 10.355469 3.476562 10.917969 4.28125 11.4375 C 4.617188 11.644531 8.308594 12.363281 12.488281 13.066406 L 20.105469 14.332031 L 20.027344 15.027344 C 20.003906 15.414062 20.027344 15.722656 20.105469 15.722656 C 20.3125 15.722656 22.53125 14.070312 22.554688 13.914062 C 22.554688 13.839844 18.683594 13.167969 13.964844 12.417969 C 9.261719 11.644531 5.128906 10.949219 4.796875 10.84375 C 4.253906 10.6875 4.410156 10.507812 6.472656 8.910156 L 8.71875 7.125 L 17.78125 8.671875 L 26.816406 10.246094 L 27.875 9.21875 L 28.933594 8.207031 L 30.480469 10.507812 L 32.054688 12.828125 L 27.875 13.886719 C 21.550781 15.539062 20.207031 15.980469 20.390625 16.289062 C 20.621094 16.652344 21.679688 16.441406 26.972656 15.074219 C 31.722656 13.808594 32.625 13.421875 32.625 12.648438 C 32.625 12.03125 30.09375 8.261719 29.398438 7.796875 C 28.855469 7.460938 28.703125 7.535156 26.816406 8.855469 C 26.378906 9.164062 25.8125 9.113281 22.554688 8.59375 C 15.355469 7.410156 9.777344 6.375 9.546875 6.144531 C 9.058594 5.707031 14.582031 3.742188 19.253906 2.714844 C 23.179688 1.859375 26.949219 1.292969 30.820312 1.007812 C 34.589844 0.746094 43.882812 0.878906 47.1875 1.265625 Z M 51.730469 5.164062 C 51.730469 7.746094 51.730469 7.769531 51.164062 7.644531 C 48.65625 7.019531 48.738281 6.996094 45.664062 9.5 L 42.796875 11.824219 L 40.113281 11.566406 C 38.613281 11.40625 37.375 11.257812 37.324219 11.230469 C 37.300781 11.179688 38.589844 10.171875 40.242188 8.980469 C 41.871094 7.796875 43.210938 6.738281 43.210938 6.65625 C 43.210938 6.585938 42.539062 6.347656 41.734375 6.167969 C 40.914062 5.988281 40.140625 5.78125 40.011719 5.707031 C 39.777344 5.574219 50.308594 2.660156 51.289062 2.578125 C 51.675781 2.554688 51.730469 2.839844 51.730469 5.164062 Z M 35.285156 16.960938 L 37.792969 17.429688 L 34.433594 20.210938 C 32.601562 21.761719 31.128906 23.078125 31.179688 23.15625 C 31.257812 23.207031 32.085938 23.464844 33.066406 23.726562 C 34.765625 24.164062 34.796875 24.164062 33.917969 24.34375 C 33.429688 24.421875 31.050781 24.859375 28.625 25.300781 C 26.222656 25.710938 23.976562 26.152344 23.667969 26.230469 C 23.125 26.359375 23.074219 26.28125 23.046875 25.117188 C 23.046875 24.421875 22.941406 23.238281 22.839844 22.488281 C 22.632812 20.960938 22.714844 20.914062 24.726562 21.402344 L 25.757812 21.632812 L 28.832031 19.050781 C 30.507812 17.65625 32.085938 16.496094 32.316406 16.519531 C 32.574219 16.519531 33.886719 16.726562 35.285156 16.960938 Z M 35.285156 16.960938 "/>
<path style=" stroke:none;fill-rule:nonzero;fill:rgb(0%,0%,0%);fill-opacity:1;" d="M 49.535156 12.78125 C 47.828125 13.113281 46.050781 13.453125 45.585938 13.527344 C 44.21875 13.730469 43.007812 14.355469 42.847656 14.894531 C 42.667969 15.460938 43.703125 18.203125 44.554688 19.386719 C 45.195312 20.3125 45.71875 20.289062 47.109375 19.285156 L 48.246094 18.457031 L 56.632812 20.210938 C 61.253906 21.167969 65.230469 21.941406 65.492188 21.941406 C 65.746094 21.941406 66.628906 21.453125 67.425781 20.835938 C 70.777344 18.25 71.324219 17.296875 69.75 16.652344 C 69.078125 16.371094 55.550781 13.914062 54.75 13.914062 C 54.648438 13.914062 54.570312 13.683594 54.570312 13.398438 C 54.570312 13.113281 54.515625 12.882812 54.441406 12.882812 C 54.101562 12.882812 52.222656 14.300781 52.453125 14.378906 C 52.609375 14.433594 56.6875 15.128906 61.515625 15.953125 L 70.34375 17.453125 L 67.941406 19.261719 L 65.539062 21.089844 L 56.8125 19.285156 L 48.089844 17.476562 L 46.746094 18.511719 L 45.433594 19.539062 L 44.398438 17.246094 C 43.855469 15.980469 43.441406 14.894531 43.496094 14.867188 C 43.546875 14.820312 45.921875 14.355469 48.761719 13.808594 C 51.597656 13.296875 53.976562 12.804688 54.023438 12.726562 C 54.238281 12.546875 53.488281 12.109375 53.019531 12.132812 C 52.816406 12.15625 51.242188 12.441406 49.535156 12.78125 Z M 49.535156 12.78125 "/>
<path style=" stroke:none;fill-rule:nonzero;fill:rgb(0%,0%,0%);fill-opacity:1;" d="M 0.046875 27.394531 L 0.125 36.996094 L 0.769531 38.363281 C 2.988281 43.058594 12.542969 47.371094 24.625 49.128906 C 29.628906 49.878906 37.269531 50.160156 42.746094 49.824219 C 48.863281 49.464844 52.066406 49 56.8125 47.863281 C 66.210938 45.59375 72.382812 42.078125 74.292969 37.953125 C 74.808594 36.8125 74.832031 36.324219 74.910156 27.210938 L 74.988281 17.65625 L 74.214844 18.742188 C 72.359375 21.300781 67.0625 24.34375 61.28125 26.175781 C 49.226562 29.972656 32.054688 30.492188 18.476562 27.441406 C 10.242188 25.609375 3.011719 22.097656 0.769531 18.84375 C 0.355469 18.273438 0.0234375 17.785156 -0.0078125 17.785156 C -0.0078125 17.785156 -0.0078125 22.097656 0.046875 27.394531 Z M 2.679688 21.917969 C 8.226562 26.050781 17.472656 28.808594 29.476562 29.945312 C 32.550781 30.230469 35.082031 30.492188 35.128906 30.539062 C 35.183594 30.59375 34.664062 30.722656 33.992188 30.800781 C 26.144531 31.929688 20.753906 35.574219 20.753906 39.785156 C 20.753906 42.417969 23.101562 45.175781 26.972656 47.0625 C 28.316406 47.707031 29.554688 48.25 29.730469 48.25 C 29.914062 48.25 30.046875 48.375 30.046875 48.535156 C 30.046875 48.898438 27.28125 48.660156 23.074219 47.964844 C 13.339844 46.335938 5.128906 42.828125 2.292969 39.113281 C 0.972656 37.382812 0.902344 36.839844 0.871094 28.554688 C 0.871094 24.34375 0.972656 20.882812 1.078125 20.882812 C 1.210938 20.882812 1.90625 21.347656 2.679688 21.917969 Z M 73.929688 28.683594 C 73.929688 36.371094 73.90625 36.53125 73.3125 37.792969 C 71.996094 40.582031 68.40625 43.058594 62.496094 45.253906 C 58.339844 46.804688 50.59375 48.511719 47.757812 48.511719 L 46.4375 48.480469 L 49.125 47.191406 C 52.015625 45.769531 54.023438 44.148438 54.855469 42.496094 C 57.40625 37.535156 52.761719 32.707031 43.882812 31.054688 C 40.730469 30.492188 41.015625 30.359375 46.953125 29.789062 C 57.382812 28.832031 66.9375 25.867188 71.996094 22.042969 C 72.847656 21.402344 73.621094 20.882812 73.726562 20.882812 C 73.851562 20.882812 73.929688 24.398438 73.929688 28.683594 Z M 44.683594 32.089844 C 50.570312 33.273438 54.59375 36.347656 54.648438 39.675781 C 54.671875 42.726562 51.757812 45.515625 46.699219 47.191406 C 37.429688 50.289062 25.085938 47.578125 22.199219 41.847656 C 21.527344 40.527344 21.601562 38.648438 22.40625 37.304688 C 23.976562 34.617188 28.339844 32.5 33.785156 31.753906 C 36.140625 31.417969 42.304688 31.621094 44.683594 32.089844 Z M 44.683594 32.089844 "/>
<path style=" stroke:none;fill-rule:nonzero;fill:rgb(0%,0%,0%);fill-opacity:1;" d="M 33.816406 33.714844 L 31.515625 33.820312 L 32.652344 34.980469 L 33.761719 36.117188 L 31.207031 38.695312 L 28.625 41.28125 L 29.914062 42.566406 L 32.496094 39.992188 L 35.050781 37.40625 L 36.164062 38.488281 L 37.269531 39.574219 L 37.300781 38.570312 C 37.300781 38 37.402344 36.632812 37.476562 35.523438 L 37.6875 33.535156 L 36.882812 33.589844 C 36.472656 33.613281 35.082031 33.691406 33.816406 33.714844 Z M 36.421875 34.878906 C 36.574219 35.058594 36.628906 35.652344 36.550781 36.191406 C 36.449219 37.074219 36.371094 37.175781 35.878906 37.019531 C 35.59375 36.917969 35.128906 36.839844 34.898438 36.8125 C 34.613281 36.789062 34.433594 36.578125 34.433594 36.246094 C 34.433594 35.960938 34.332031 35.550781 34.171875 35.34375 C 34.023438 35.109375 34.046875 34.902344 34.25 34.773438 C 34.742188 34.464844 36.164062 34.539062 36.421875 34.878906 Z M 36.421875 34.878906 "/>
<path style=" stroke:none;fill-rule:nonzero;fill:rgb(0%,0%,0%);fill-opacity:1;" d="M 43.109375 37.847656 L 40.808594 37.953125 L 41.949219 39.113281 L 43.054688 40.246094 L 40.5 42.828125 L 37.917969 45.410156 L 38.566406 46.054688 L 39.207031 46.699219 L 41.789062 44.117188 L 44.34375 41.539062 L 45.433594 42.597656 L 46.492188 43.65625 L 46.667969 41.097656 C 46.769531 39.707031 46.925781 38.363281 46.980469 38.101562 C 47.085938 37.738281 46.980469 37.667969 46.257812 37.714844 C 45.789062 37.738281 44.375 37.820312 43.109375 37.847656 Z M 45.664062 38.980469 C 45.867188 39.265625 45.921875 40.996094 45.742188 41.152344 C 45.6875 41.226562 45.222656 41.199219 44.707031 41.121094 C 43.882812 40.972656 43.78125 40.867188 43.648438 40.039062 C 43.546875 39.550781 43.546875 39.035156 43.625 38.902344 C 43.804688 38.59375 45.480469 38.648438 45.664062 38.980469 Z M 45.664062 38.980469 "/>
</g>
</svg>
