<?xml version="1.0" encoding="UTF-8"?>
<svg xmlns="http://www.w3.org/2000/svg" xmlns:xlink="http://www.w3.org/1999/xlink" width="55px" height="78px" viewBox="0 0 55 78" version="1.1">
<g id="surface1">
<path style=" stroke:none;fill-rule:nonzero;fill:rgb(0%,0%,0%);fill-opacity:1;" d="M -0.00390625 14.609375 C -0.00390625 22.644531 0.0703125 40.183594 0.183594 53.597656 L 0.339844 77.988281 L 55.003906 77.988281 L 55.003906 0.0117188 L -0.00390625 0.0117188 Z M 53.8125 39 L 53.8125 76.9375 L 1.445312 76.9375 L 1.292969 68.40625 C 1.210938 63.707031 1.105469 46.667969 1.082031 30.546875 C 1.050781 7.308594 1.132812 1.21875 1.398438 1.113281 C 1.550781 1.035156 13.429688 0.980469 27.765625 1.007812 L 53.8125 1.0625 Z M 53.8125 39 "/>
<path style=" stroke:none;fill-rule:nonzero;fill:rgb(0%,0%,0%);fill-opacity:1;" d="M 4.386719 5.15625 L 3.699219 5.683594 L 3.699219 10.773438 C 3.699219 15.683594 3.722656 15.890625 4.28125 16.421875 C 4.863281 16.945312 5.074219 16.945312 26.972656 16.945312 L 49.109375 16.945312 L 49.660156 16.34375 C 50.21875 15.765625 50.242188 15.5 50.242188 10.804688 C 50.242188 5.941406 50.242188 5.894531 49.585938 5.257812 L 48.945312 4.605469 L 27.023438 4.605469 C 5.226562 4.605469 5.097656 4.605469 4.386719 5.15625 Z M 49.1875 10.773438 L 49.1875 15.890625 L 4.492188 15.890625 L 4.492188 5.65625 L 49.1875 5.65625 Z M 49.1875 10.773438 "/>
<path style=" stroke:none;fill-rule:nonzero;fill:rgb(0%,0%,0%);fill-opacity:1;" d="M 38.875 10.5625 L 38.875 12.089844 L 42.628906 12.058594 L 46.378906 12.011719 L 46.410156 10.539062 L 46.4375 9.070312 L 38.875 9.070312 Z M 45.164062 10.5625 C 45.246094 10.828125 44.640625 10.910156 42.738281 10.910156 C 40.460938 10.910156 39.402344 10.644531 40.25 10.273438 C 40.964844 10.019531 45.035156 10.25 45.164062 10.5625 Z M 45.164062 10.5625 "/>
<path style=" stroke:none;fill-rule:nonzero;fill:rgb(0%,0%,0%);fill-opacity:1;" d="M 4.28125 19.914062 C 3.722656 20.492188 3.699219 20.753906 3.699219 25.554688 C 3.699219 30.253906 3.722656 30.625 4.226562 31.125 C 4.757812 31.648438 5.097656 31.648438 26.917969 31.648438 L 49.109375 31.648438 L 49.660156 31.042969 C 50.21875 30.464844 50.242188 30.207031 50.242188 25.554688 C 50.242188 21.042969 50.21875 20.652344 49.691406 19.992188 L 49.160156 19.308594 L 4.832031 19.308594 Z M 49.1875 25.480469 L 49.1875 30.601562 L 4.492188 30.601562 L 4.492188 20.359375 L 49.1875 20.359375 Z M 49.1875 25.480469 "/>
<path style=" stroke:none;fill-rule:nonzero;fill:rgb(0%,0%,0%);fill-opacity:1;" d="M 38.875 25.738281 L 38.875 27.183594 L 46.4375 27.183594 L 46.4375 24.296875 L 38.875 24.296875 Z M 45.222656 25.738281 C 45.222656 26.058594 44.769531 26.132812 42.738281 26.132812 C 40.429688 26.132812 39.667969 25.949219 40.113281 25.503906 C 40.195312 25.425781 41.382812 25.347656 42.757812 25.347656 C 44.769531 25.347656 45.222656 25.425781 45.222656 25.738281 Z M 45.222656 25.738281 "/>
<path style=" stroke:none;fill-rule:nonzero;fill:rgb(0%,0%,0%);fill-opacity:1;" d="M 4.386719 34.296875 L 3.699219 34.828125 L 3.699219 39.890625 C 3.699219 44.824219 3.722656 44.960938 4.304688 45.507812 L 4.914062 46.085938 L 49.109375 46.085938 L 49.660156 45.488281 C 50.21875 44.910156 50.242188 44.644531 50.242188 39.949219 C 50.242188 35.085938 50.242188 35.035156 49.585938 34.402344 L 48.945312 33.753906 L 27.023438 33.753906 C 5.226562 33.753906 5.097656 33.753906 4.386719 34.296875 Z M 49.1875 39.917969 L 49.1875 45.035156 L 4.492188 45.035156 L 4.492188 34.796875 L 49.1875 34.796875 Z M 49.1875 39.917969 "/>
<path style=" stroke:none;fill-rule:nonzero;fill:rgb(0%,0%,0%);fill-opacity:1;" d="M 38.875 40.445312 L 38.875 41.886719 L 46.4375 41.886719 L 46.4375 39 L 38.875 39 Z M 45.222656 40.445312 C 45.222656 40.761719 44.769531 40.839844 42.738281 40.839844 C 40.429688 40.839844 39.667969 40.65625 40.113281 40.207031 C 40.195312 40.125 41.382812 40.054688 42.757812 40.054688 C 44.769531 40.054688 45.222656 40.125 45.222656 40.445312 Z M 45.222656 40.445312 "/>
<path style=" stroke:none;fill-rule:nonzero;fill:rgb(0%,0%,0%);fill-opacity:1;" d="M 4.386719 48.742188 L 3.699219 49.265625 L 3.699219 59.746094 L 4.410156 60.1875 C 5.074219 60.636719 6.5 60.660156 27 60.660156 L 48.867188 60.660156 L 49.554688 60.03125 L 50.242188 59.398438 L 50.242188 54.4375 C 50.242188 49.527344 50.242188 49.472656 49.585938 48.847656 L 48.945312 48.1875 L 27.023438 48.1875 C 5.226562 48.1875 5.097656 48.1875 4.386719 48.742188 Z M 49.1875 54.488281 L 49.1875 59.746094 L 4.492188 59.746094 L 4.492188 49.238281 L 49.1875 49.238281 Z M 49.1875 54.488281 "/>
<path style=" stroke:none;fill-rule:nonzero;fill:rgb(0%,0%,0%);fill-opacity:1;" d="M 38.875 54.625 L 38.875 56.0625 L 46.4375 56.0625 L 46.4375 53.179688 L 38.875 53.179688 Z M 45.164062 54.671875 C 45.246094 54.9375 44.640625 55.015625 42.738281 55.015625 C 40.429688 55.015625 39.667969 54.832031 40.113281 54.382812 C 40.460938 54.070312 45.035156 54.335938 45.164062 54.671875 Z M 45.164062 54.671875 "/>
<path style=" stroke:none;fill-rule:nonzero;fill:rgb(0%,0%,0%);fill-opacity:1;" d="M 5.625 62.894531 C 4.699219 63.257812 4.121094 64.308594 4.492188 64.964844 C 5.226562 66.382812 4.253906 66.332031 27.816406 66.253906 C 48.867188 66.175781 49.691406 66.148438 50.21875 65.675781 C 50.929688 65.046875 50.929688 63.890625 50.21875 63.257812 C 49.691406 62.789062 48.898438 62.761719 27.921875 62.707031 C 15.625 62.6875 5.945312 62.761719 5.625 62.894531 Z M 49.980469 64.46875 L 49.980469 65.257812 L 5.285156 65.257812 L 5.285156 63.683594 L 49.980469 63.683594 Z M 49.980469 64.46875 "/>
<path style=" stroke:none;fill-rule:nonzero;fill:rgb(0%,0%,0%);fill-opacity:1;" d="M 38.527344 68.769531 C 37.289062 69.925781 37.257812 71.375 38.476562 72.660156 C 39.425781 73.65625 40.695312 73.65625 41.835938 72.636719 C 42.550781 72 42.707031 71.6875 42.707031 70.796875 C 42.707031 68.539062 40.136719 67.300781 38.527344 68.769531 Z M 41.253906 69.453125 C 42.285156 70.484375 41.570312 72.605469 40.21875 72.605469 C 39.503906 72.605469 38.664062 71.816406 38.445312 70.980469 C 38.34375 70.425781 38.445312 70.113281 38.980469 69.613281 C 39.773438 68.800781 40.535156 68.746094 41.253906 69.453125 Z M 41.253906 69.453125 "/>
<path style=" stroke:none;fill-rule:nonzero;fill:rgb(0%,0%,0%);fill-opacity:1;" d="M 44.1875 69.058594 C 43.101562 70.296875 43.101562 71.238281 44.1875 72.476562 C 44.851562 73.207031 45.191406 73.394531 45.984375 73.394531 C 47.207031 73.394531 48.339844 72.316406 48.550781 70.980469 C 48.6875 70.21875 48.582031 69.90625 47.863281 69.117188 C 47.175781 68.328125 46.832031 68.140625 46.015625 68.140625 C 45.191406 68.140625 44.851562 68.328125 44.1875 69.058594 Z M 47.019531 69.347656 C 48.210938 70.167969 47.441406 72.605469 46.015625 72.605469 C 44.585938 72.605469 43.820312 70.167969 45.011719 69.347656 C 45.328125 69.117188 45.773438 68.929688 46.015625 68.929688 C 46.25 68.929688 46.703125 69.117188 47.019531 69.347656 Z M 47.019531 69.347656 "/>
</g>
</svg>
