<?xml version="1.0" encoding="UTF-8"?>
<svg xmlns="http://www.w3.org/2000/svg" xmlns:xlink="http://www.w3.org/1999/xlink" width="75px" height="37px" viewBox="0 0 77 37" version="1.1">
<g id="surface1">
<path style=" stroke:none;fill-rule:nonzero;fill:rgb(0%,0%,0%);fill-opacity:1;" d="M 12.617188 8.683594 C 6.730469 13.476562 1.6875 17.554688 1.417969 17.769531 C 1.128906 17.953125 0.941406 18.167969 1.023438 18.195312 C 1.074219 18.242188 13.863281 18.21875 29.421875 18.136719 L 57.707031 18.007812 L 66.84375 9 L 76.015625 -0.00390625 L 23.339844 -0.00390625 Z M 59.898438 1.15625 C 59.898438 1.320312 59.640625 1.609375 59.316406 1.820312 C 58.816406 2.195312 57.65625 2.246094 52.003906 2.246094 C 45.667969 2.246094 45.238281 2.273438 44.421875 2.804688 C 43.445312 3.410156 43.3125 3.832031 43.945312 4.472656 C 44.292969 4.839844 45.238281 4.894531 50.097656 4.894531 L 55.863281 4.894531 L 56.46875 5.558594 C 57.230469 6.378906 57.707031 6.378906 61.011719 5.527344 C 63.941406 4.789062 65.1875 4.261719 65.1875 3.757812 C 65.1875 3.121094 64.417969 2.351562 63.359375 1.847656 C 62.777344 1.585938 62.355469 1.261719 62.4375 1.15625 C 62.621094 0.839844 73.03125 0.839844 73.214844 1.15625 C 73.296875 1.261719 69.675781 4.976562 65.1875 9.371094 L 57.019531 17.34375 L 37.054688 17.34375 C 21.175781 17.34375 17.082031 17.269531 17.164062 17 C 17.242188 16.839844 17.664062 16.417969 18.167969 16.078125 C 19.015625 15.519531 19.226562 15.492188 25.855469 15.492188 C 32.617188 15.492188 32.664062 15.492188 33.382812 14.882812 C 34.226562 14.140625 34.121094 13.507812 33.09375 13.109375 C 32.695312 12.949219 29.921875 12.84375 26.90625 12.84375 C 22.976562 12.84375 21.359375 12.761719 21.125 12.523438 C 20.859375 12.257812 20.625 12.390625 19.9375 13.054688 L 19.089844 13.929688 L 26.40625 13.847656 C 33.40625 13.765625 33.722656 13.796875 33.140625 14.21875 C 32.617188 14.640625 31.765625 14.699219 25.429688 14.699219 L 18.328125 14.699219 L 17.503906 15.492188 L 16.6875 16.289062 L 15.101562 15.679688 C 14.257812 15.332031 13.304688 14.957031 13.015625 14.851562 C 12.617188 14.699219 13.492188 14.351562 16.183594 13.53125 C 18.222656 12.921875 20.121094 12.28125 20.382812 12.128906 C 20.882812 11.859375 20.882812 11.835938 20.359375 11.675781 C 19.777344 11.488281 13.914062 13.160156 12.933594 13.796875 C 11.882812 14.488281 12.277344 15.25 14.148438 16.152344 C 15.050781 16.578125 15.789062 17.027344 15.789062 17.132812 C 15.789062 17.238281 13.175781 17.34375 9.949219 17.34375 C 5.117188 17.34375 4.136719 17.292969 4.21875 16.976562 C 4.273438 16.757812 5.25 15.835938 6.410156 14.910156 C 7.574219 13.976562 11.429688 10.832031 14.996094 7.945312 C 18.5625 5.054688 21.96875 2.273438 22.605469 1.796875 L 23.769531 0.921875 L 41.832031 0.921875 C 52.976562 0.921875 59.898438 1.027344 59.898438 1.15625 Z M 62.9375 2.671875 L 65 3.621094 L 60.933594 4.660156 C 58.6875 5.210938 56.808594 5.691406 56.730469 5.664062 C 56.65625 5.664062 57.019531 5.316406 57.523438 4.894531 L 58.417969 4.101562 L 51.050781 4.101562 C 44.503906 4.074219 43.710938 4.042969 44.15625 3.703125 C 44.582031 3.386719 45.980469 3.304688 51.976562 3.304688 L 59.265625 3.304688 L 60.035156 2.511719 C 60.457031 2.058594 60.828125 1.714844 60.828125 1.714844 C 60.851562 1.714844 61.804688 2.136719 62.9375 2.671875 Z M 62.9375 2.671875 "/>
<path style=" stroke:none;fill-rule:nonzero;fill:rgb(0%,0%,0%);fill-opacity:1;" d="M 27.699219 5.398438 C 23.316406 6.507812 22.65625 7.464844 25.324219 8.789062 C 27.175781 9.71875 27.992188 9.792969 29.203125 9.160156 C 30.238281 8.632812 30.714844 8.601562 37.105469 8.601562 L 43.921875 8.601562 L 44.65625 7.945312 C 45.054688 7.570312 45.375 7.042969 45.375 6.800781 C 45.375 5.769531 44.921875 5.691406 39.140625 5.691406 C 36.050781 5.691406 33.246094 5.585938 32.90625 5.453125 C 32.429688 5.269531 32.089844 5.375 31.371094 5.851562 L 30.472656 6.484375 L 45.164062 6.484375 L 44.371094 7.148438 L 43.578125 7.808594 L 36.554688 7.808594 C 29.816406 7.808594 29.46875 7.839844 28.757812 8.367188 L 27.992188 8.925781 L 25.984375 8.179688 C 23.875 7.359375 23.503906 7.042969 24.714844 6.988281 C 25.824219 6.960938 31.664062 5.316406 31.71875 5.027344 C 31.796875 4.554688 30.738281 4.660156 27.699219 5.398438 Z M 27.699219 5.398438 "/>
<path style=" stroke:none;fill-rule:nonzero;fill:rgb(0%,0%,0%);fill-opacity:1;" d="M 52.109375 8.867188 L 51.15625 9.636719 L 44.234375 9.664062 C 37.953125 9.664062 37.265625 9.71875 36.660156 10.167969 C 36.285156 10.433594 35.941406 10.855469 35.890625 11.121094 C 35.703125 12.175781 36.449219 12.3125 42.789062 12.3125 C 48.441406 12.3125 48.804688 12.339844 49.070312 12.816406 C 49.546875 13.71875 50.257812 13.691406 53.664062 12.574219 C 57.15625 11.4375 57.949219 10.878906 57.230469 10.035156 C 56.808594 9.5 55.304688 8.738281 54.035156 8.390625 C 53.136719 8.15625 52.953125 8.179688 52.109375 8.867188 Z M 56.996094 10.351562 C 57.207031 10.433594 55.78125 11.015625 53.824219 11.625 C 51.871094 12.257812 50.023438 12.867188 49.734375 12.972656 C 49.230469 13.183594 49.230469 13.160156 49.757812 12.550781 C 50.074219 12.207031 50.390625 11.78125 50.46875 11.648438 C 50.550781 11.464844 48.117188 11.414062 43.3125 11.464844 L 35.996094 11.519531 L 36.628906 10.984375 C 37.210938 10.484375 37.636719 10.457031 44.609375 10.457031 L 51.949219 10.457031 L 52.53125 9.6875 L 53.089844 8.925781 L 54.851562 9.558594 C 55.808594 9.929688 56.785156 10.273438 56.996094 10.351562 Z M 56.996094 10.351562 "/>
<path style=" stroke:none;fill-rule:nonzero;fill:rgb(0%,0%,0%);fill-opacity:1;" d="M 67.351562 9.742188 L 58.3125 18.800781 L 58.371094 27.914062 L 58.449219 37 L 67.484375 26.984375 L 76.539062 16.945312 L 76.539062 8.789062 C 76.539062 4.3125 76.515625 0.65625 76.464844 0.65625 C 76.433594 0.65625 72.34375 4.734375 67.351562 9.742188 Z M 75.746094 9.742188 C 75.746094 15.355469 75.699219 16.257812 75.300781 16.816406 C 75.058594 17.1875 72.050781 20.578125 68.617188 24.363281 C 65.210938 28.175781 61.984375 31.753906 61.460938 32.3125 C 60.957031 32.894531 60.269531 33.609375 59.953125 33.875 L 59.371094 34.378906 L 59.371094 19.070312 L 67.242188 11.195312 C 71.550781 6.855469 75.246094 3.304688 75.433594 3.304688 C 75.671875 3.304688 75.746094 4.816406 75.746094 9.742188 Z M 75.746094 9.742188 "/>
<path style=" stroke:none;fill-rule:nonzero;fill:rgb(0%,0%,0%);fill-opacity:1;" d="M 0.464844 28.070312 L 0.464844 36.949219 L 57.523438 36.949219 L 57.523438 19.199219 L 0.464844 19.199219 Z M 56.226562 20.261719 C 56.703125 20.523438 56.730469 20.894531 56.730469 27.808594 C 56.730469 31.785156 56.65625 35.222656 56.574219 35.464844 C 56.414062 35.832031 53.746094 35.886719 28.96875 35.886719 L 1.523438 35.886719 L 1.523438 28.128906 C 1.523438 23.835938 1.605469 20.261719 1.710938 20.179688 C 2 19.863281 55.644531 19.96875 56.226562 20.261719 Z M 56.226562 20.261719 "/>
</g>
</svg>
